<svg width="50" height="50" viewBox="0 0 50 50" fill="none" xmlns="http://www.w3.org/2000/svg">
<circle cx="25" cy="25" r="24.5" stroke="url(#paint0_linear)"/>
<path d="M11.976 39.4115C11.672 39.4115 11.3973 39.3582 11.152 39.2515C10.9067 39.1449 10.712 38.9742 10.568 38.7395C10.424 38.4995 10.352 38.1875 10.352 37.8035C10.352 37.4142 10.4027 37.0435 10.504 36.6915C10.6053 36.3395 10.7547 36.0275 10.952 35.7555C11.1493 35.4835 11.392 35.2702 11.68 35.1155C11.968 34.9609 12.296 34.8835 12.664 34.8835C12.9253 34.8835 13.1573 34.9075 13.36 34.9555C13.568 35.0035 13.7627 35.0729 13.944 35.1635L13.584 36.0595C13.4453 36.0009 13.3067 35.9502 13.168 35.9075C13.0347 35.8595 12.8827 35.8355 12.712 35.8355C12.4613 35.8355 12.248 35.9289 12.072 36.1155C11.9013 36.2969 11.7707 36.5315 11.68 36.8195C11.5893 37.1075 11.544 37.4035 11.544 37.7075C11.544 37.9582 11.6027 38.1475 11.72 38.2755C11.8373 38.3982 12.0027 38.4595 12.216 38.4595C12.4133 38.4595 12.5947 38.4302 12.76 38.3715C12.9307 38.3075 13.1067 38.2302 13.288 38.1395V39.0995C13.1013 39.1955 12.904 39.2729 12.696 39.3315C12.488 39.3849 12.248 39.4115 11.976 39.4115ZM15.8912 39.4115C15.5659 39.4115 15.2752 39.3449 15.0192 39.2115C14.7685 39.0729 14.5712 38.8782 14.4272 38.6275C14.2885 38.3769 14.2192 38.0782 14.2192 37.7315C14.2192 37.3475 14.2672 36.9849 14.3632 36.6435C14.4592 36.2969 14.6032 35.9929 14.7952 35.7315C14.9872 35.4649 15.2272 35.2569 15.5152 35.1075C15.8085 34.9582 16.1499 34.8835 16.5392 34.8835C17.0459 34.8835 17.4485 35.0355 17.7472 35.3395C18.0459 35.6435 18.1952 36.0675 18.1952 36.6115C18.1952 36.9795 18.1499 37.3315 18.0592 37.6675C17.9685 38.0035 17.8272 38.3022 17.6352 38.5635C17.4485 38.8249 17.2085 39.0329 16.9152 39.1875C16.6272 39.3369 16.2859 39.4115 15.8912 39.4115ZM15.9872 38.4515C16.2059 38.4515 16.3899 38.3635 16.5392 38.1875C16.6939 38.0115 16.8112 37.7849 16.8912 37.5075C16.9712 37.2249 17.0112 36.9262 17.0112 36.6115C17.0112 36.3929 16.9685 36.2115 16.8832 36.0675C16.8032 35.9182 16.6592 35.8435 16.4512 35.8435C16.2752 35.8435 16.1205 35.9049 15.9872 36.0275C15.8539 36.1449 15.7445 36.2995 15.6592 36.4915C15.5739 36.6835 15.5099 36.8889 15.4672 37.1075C15.4245 37.3262 15.4032 37.5342 15.4032 37.7315C15.4032 38.2115 15.5979 38.4515 15.9872 38.4515ZM18.6909 39.3315L19.6189 34.9635H20.5149L20.4349 35.7715H20.4669C20.6375 35.5102 20.8322 35.2969 21.0509 35.1315C21.2749 34.9662 21.5389 34.8835 21.8429 34.8835C22.2162 34.8835 22.4962 34.9982 22.6829 35.2275C22.8749 35.4515 22.9709 35.7555 22.9709 36.1395C22.9709 36.3315 22.9415 36.5662 22.8829 36.8435L22.3629 39.3315H21.1869L21.7229 36.7795C21.7655 36.5929 21.7869 36.4382 21.7869 36.3155C21.7869 35.9955 21.6455 35.8355 21.3629 35.8355C21.1815 35.8355 21.0189 35.9129 20.8749 36.0675C20.7362 36.2169 20.6135 36.4195 20.5069 36.6755C20.4055 36.9315 20.3202 37.2142 20.2509 37.5235L19.8669 39.3315H18.6909ZM24.959 39.4115C24.7457 39.4115 24.5457 39.3609 24.359 39.2595C24.1723 39.1529 24.0203 38.9849 23.903 38.7555C23.7857 38.5209 23.727 38.2115 23.727 37.8275C23.727 37.4702 23.775 37.1182 23.871 36.7715C23.967 36.4249 24.103 36.1102 24.279 35.8275C24.455 35.5395 24.6657 35.3102 24.911 35.1395C25.1617 34.9689 25.4417 34.8835 25.751 34.8835C26.0283 34.8835 26.2523 34.9422 26.423 35.0595C26.599 35.1769 26.735 35.3315 26.831 35.5235H26.863L27.087 34.9635H27.991L27.063 39.3315H26.183L26.239 38.7635H26.207C26.0523 38.9555 25.8737 39.1129 25.671 39.2355C25.4737 39.3529 25.2363 39.4115 24.959 39.4115ZM25.423 38.4595C25.583 38.4595 25.7323 38.3955 25.871 38.2675C26.0097 38.1395 26.127 37.9769 26.223 37.7795C26.3243 37.5769 26.3963 37.3609 26.439 37.1315C26.4763 36.9395 26.495 36.7209 26.495 36.4755C26.495 36.2889 26.447 36.1369 26.351 36.0195C26.255 35.8969 26.1217 35.8355 25.951 35.8355C25.807 35.8355 25.671 35.8942 25.543 36.0115C25.4203 36.1235 25.311 36.2729 25.215 36.4595C25.1243 36.6462 25.0523 36.8542 24.999 37.0835C24.9457 37.3129 24.919 37.5422 24.919 37.7715C24.919 38.2302 25.087 38.4595 25.423 38.4595ZM28.269 39.3315L29.557 33.2515H30.733L29.445 39.3315H28.269ZM32.58 39.4115C32.068 39.4115 31.652 39.2729 31.332 38.9955C31.012 38.7182 30.852 38.2942 30.852 37.7235C30.852 37.3555 30.9027 37.0035 31.004 36.6675C31.1107 36.3262 31.2653 36.0222 31.468 35.7555C31.676 35.4889 31.932 35.2782 32.236 35.1235C32.54 34.9635 32.892 34.8835 33.292 34.8835C33.7773 34.8835 34.1427 34.9955 34.388 35.2195C34.6333 35.4435 34.756 35.7289 34.756 36.0755C34.756 36.5342 34.548 36.9022 34.132 37.1795C33.7213 37.4569 33.092 37.5955 32.244 37.5955H32.044C32.0387 37.6275 32.036 37.6569 32.036 37.6835C32.036 37.7049 32.036 37.7289 32.036 37.7555C32.036 37.9902 32.1027 38.1769 32.236 38.3155C32.3693 38.4542 32.5613 38.5235 32.812 38.5235C33.0413 38.5235 33.2493 38.4995 33.436 38.4515C33.6227 38.3982 33.844 38.3102 34.1 38.1875V39.0755C33.8707 39.1875 33.636 39.2729 33.396 39.3315C33.1613 39.3849 32.8893 39.4115 32.58 39.4115ZM32.172 36.8035H32.348C32.8013 36.8035 33.1267 36.7342 33.324 36.5955C33.5267 36.4515 33.628 36.2862 33.628 36.0995C33.628 35.8542 33.492 35.7315 33.22 35.7315C33.0707 35.7315 32.924 35.7769 32.78 35.8675C32.6413 35.9582 32.516 36.0835 32.404 36.2435C32.2973 36.4035 32.22 36.5902 32.172 36.8035ZM34.6891 41.2515L36.0251 34.9635H36.9211L36.8571 35.6275H36.8891C37.0278 35.4409 37.1985 35.2702 37.4011 35.1155C37.6038 34.9609 37.8465 34.8835 38.1291 34.8835C38.3371 34.8835 38.5345 34.9369 38.7211 35.0435C38.9131 35.1449 39.0678 35.3129 39.1851 35.5475C39.3025 35.7769 39.3611 36.0862 39.3611 36.4755C39.3611 36.8275 39.3131 37.1795 39.2171 37.5315C39.1211 37.8782 38.9851 38.1929 38.8091 38.4755C38.6331 38.7582 38.4198 38.9849 38.1691 39.1555C37.9238 39.3262 37.6465 39.4115 37.3371 39.4115C37.0705 39.4115 36.8651 39.3502 36.7211 39.2275C36.5771 39.1049 36.4518 38.9529 36.3451 38.7715H36.3131C36.2971 38.9849 36.2758 39.1795 36.2491 39.3555C36.2225 39.5315 36.1878 39.7209 36.1451 39.9235L35.8651 41.2515H34.6891ZM37.1371 38.4595C37.2811 38.4595 37.4145 38.4035 37.5371 38.2915C37.6651 38.1742 37.7745 38.0222 37.8651 37.8355C37.9611 37.6489 38.0358 37.4409 38.0891 37.2115C38.1425 36.9822 38.1691 36.7529 38.1691 36.5235C38.1691 36.0649 37.9985 35.8355 37.6571 35.8355C37.4651 35.8355 37.3025 35.9049 37.1691 36.0435C37.0358 36.1822 36.9265 36.3555 36.8411 36.5635C36.7558 36.7715 36.6918 36.9849 36.6491 37.2035C36.6118 37.4222 36.5931 37.6115 36.5931 37.7715C36.5931 37.9795 36.6411 38.1475 36.7371 38.2755C36.8385 38.3982 36.9718 38.4595 37.1371 38.4595Z" fill="#0B6C5E"/>
<path d="M34.89 16.0588L28.9484 19.2549C27.4213 15.7026 24.5292 16.6983 23.274 17.6402L8.87514 26.0811L10.415 17.2523C13.9899 15.19 21.4282 10.9554 22.5828 10.5151C29.1791 8.27358 33.5361 13.2769 34.89 16.0588Z" fill="#0B6C5E"/>
<path d="M15.11 24.42L21.0516 21.2239C22.5787 24.7762 25.4708 23.7805 26.726 22.8386L41.1249 14.3977L39.585 23.2265C36.0101 25.2888 28.5718 29.5234 27.4172 29.9637C20.8209 32.2052 16.4639 27.2019 15.11 24.42Z" fill="#0B6C5E"/>
<defs>
<linearGradient id="paint0_linear" x1="3.09963" y1="-3.03924" x2="40.8473" y2="46.4551" gradientUnits="userSpaceOnUse">
<stop/>
<stop offset="0.0001" stop-color="#DBDACC"/>
<stop offset="1" stop-color="#AAA771"/>
</linearGradient>
</defs>
</svg>
