<svg width="258" height="65" viewBox="0 0 258 65" fill="none" xmlns="http://www.w3.org/2000/svg">
<path d="M81.7096 19.6562L63.36 29.5268C58.6439 18.5563 49.7123 21.6313 45.836 24.5401L1.36803 50.608L6.12365 23.3421C17.1638 16.9733 40.1355 3.89559 43.7012 2.53572C64.0727 -4.38679 77.5282 11.065 81.7096 19.6562Z" fill="white"/>
<path d="M20.623 45.4781L38.9725 35.6075C43.6886 46.578 52.6203 43.503 56.4966 40.5941L100.965 14.5262L96.2089 41.7922C85.1688 48.161 62.1971 61.2387 58.6314 62.5986C38.2599 69.5211 24.8043 54.0693 20.623 45.4781Z" fill="white"/>
<path d="M122.826 47.2574C119.515 47.2574 117.019 46.2895 115.338 44.3537C113.657 42.4179 112.816 39.8199 112.816 36.5596C112.816 34.9549 112.994 33.3375 113.351 31.7074C113.733 30.0518 114.293 28.4853 115.032 27.008C115.796 25.5052 116.751 24.168 117.897 22.9964C119.044 21.7992 120.406 20.8696 121.986 20.2073C123.565 19.5196 125.373 19.1757 127.411 19.1757C129.143 19.1757 130.607 19.3413 131.805 19.6724C133.027 19.9781 134.237 20.462 135.434 21.1243L133.218 25.7854C132.352 25.276 131.448 24.8557 130.506 24.5246C129.589 24.168 128.557 23.9897 127.411 23.9897C125.883 23.9897 124.558 24.3718 123.437 25.1359C122.342 25.9 121.438 26.8934 120.725 28.116C120.012 29.3386 119.477 30.6758 119.12 32.1277C118.789 33.554 118.623 34.9295 118.623 36.254C118.623 38.3171 119.044 39.8581 119.884 40.8769C120.75 41.8958 122.113 42.4052 123.972 42.4052C124.991 42.4052 126.035 42.2778 127.105 42.0231C128.175 41.7429 129.232 41.3863 130.276 40.9533V45.8055C129.512 46.1112 128.493 46.4296 127.22 46.7607C125.946 47.0918 124.482 47.2574 122.826 47.2574ZM143.584 47.2574C142.03 47.2574 140.642 46.939 139.419 46.3022C138.222 45.64 137.28 44.7103 136.592 43.5132C135.93 42.316 135.599 40.8897 135.599 39.234C135.599 37.4001 135.828 35.6681 136.286 34.038C136.745 32.3824 137.432 30.9305 138.349 29.6825C139.266 28.4089 140.413 27.4156 141.788 26.7024C143.189 25.9892 144.819 25.6326 146.678 25.6326C149.098 25.6326 151.021 26.3585 152.448 27.8104C153.874 29.2622 154.587 31.2871 154.587 33.8852C154.587 35.6427 154.371 37.3237 153.938 38.9284C153.505 40.5331 152.83 41.9594 151.913 43.2075C151.021 44.4556 149.875 45.4489 148.474 46.1876C147.099 46.9008 145.469 47.2574 143.584 47.2574ZM144.042 42.6726C145.086 42.6726 145.965 42.2523 146.678 41.4118C147.417 40.5713 147.977 39.4888 148.359 38.1643C148.742 36.8143 148.933 35.3879 148.933 33.8852C148.933 32.8409 148.729 31.9748 148.321 31.2871C147.939 30.574 147.252 30.2174 146.258 30.2174C145.418 30.2174 144.679 30.5103 144.042 31.0961C143.405 31.6565 142.883 32.3951 142.476 33.3121C142.068 34.229 141.763 35.2096 141.559 36.254C141.355 37.2983 141.253 38.2916 141.253 39.234C141.253 41.5264 142.183 42.6726 144.042 42.6726ZM156.954 46.8753L161.386 26.0147H165.665L165.283 29.8735H165.436C166.251 28.6254 167.181 27.6066 168.225 26.817C169.295 26.0274 170.556 25.6326 172.008 25.6326C173.791 25.6326 175.128 26.1802 176.019 27.2755C176.936 28.3453 177.395 29.7971 177.395 31.631C177.395 32.5479 177.255 33.6687 176.975 34.9931L174.491 46.8753H168.875L171.435 34.6875C171.638 33.796 171.74 33.0574 171.74 32.4715C171.74 30.9433 171.065 30.1792 169.715 30.1792C168.849 30.1792 168.072 30.5485 167.385 31.2871C166.722 32.0003 166.137 32.9682 165.627 34.1908C165.143 35.4134 164.736 36.7634 164.405 38.2407L162.571 46.8753H156.954ZM186.89 47.2574C185.871 47.2574 184.916 47.0154 184.024 46.5314C183.133 46.022 182.407 45.2197 181.846 44.1245C181.286 43.0037 181.006 41.5264 181.006 39.6925C181.006 37.986 181.235 36.3049 181.694 34.6493C182.152 32.9937 182.802 31.4909 183.642 30.1409C184.483 28.7655 185.489 27.6703 186.66 26.8552C187.858 26.0401 189.195 25.6326 190.672 25.6326C191.997 25.6326 193.066 25.9128 193.881 26.4731C194.722 27.0335 195.371 27.7722 195.83 28.6891H195.983L197.053 26.0147H201.37L196.938 46.8753H192.735L193.003 44.1627H192.85C192.111 45.0796 191.258 45.831 190.29 46.4168C189.348 46.9772 188.214 47.2574 186.89 47.2574ZM189.106 42.7108C189.87 42.7108 190.583 42.4052 191.245 41.7939C191.907 41.1826 192.468 40.4057 192.926 39.4633C193.41 38.4954 193.754 37.4638 193.958 36.3686C194.136 35.4516 194.225 34.4073 194.225 33.2357C194.225 32.3442 193.996 31.6183 193.538 31.0579C193.079 30.4721 192.442 30.1792 191.627 30.1792C190.94 30.1792 190.29 30.4593 189.679 31.0197C189.093 31.5546 188.571 32.2678 188.112 33.1592C187.679 34.0507 187.335 35.0441 187.081 36.1393C186.826 37.2346 186.699 38.3298 186.699 39.4251C186.699 41.6156 187.501 42.7108 189.106 42.7108ZM202.698 46.8753L208.849 17.8385H214.465L208.314 46.8753H202.698ZM223.286 47.2574C220.841 47.2574 218.854 46.5951 217.326 45.2706C215.797 43.9462 215.033 41.9212 215.033 39.1958C215.033 37.4383 215.275 35.7573 215.759 34.1526C216.269 32.5225 217.007 31.0706 217.975 29.7971C218.969 28.5235 220.191 27.5174 221.643 26.7788C223.095 26.0147 224.776 25.6326 226.686 25.6326C229.004 25.6326 230.749 26.1675 231.921 27.2373C233.092 28.307 233.678 29.6697 233.678 31.3253C233.678 33.5158 232.685 35.2733 230.698 36.5978C228.737 37.9223 225.731 38.5845 221.681 38.5845H220.726C220.701 38.7374 220.688 38.8775 220.688 39.0048C220.688 39.1067 220.688 39.2213 220.688 39.3487C220.688 40.4694 221.006 41.3609 221.643 42.0231C222.28 42.6853 223.197 43.0165 224.394 43.0165C225.489 43.0165 226.483 42.9019 227.374 42.6726C228.265 42.4179 229.323 41.9976 230.545 41.4118V45.6527C229.45 46.1876 228.329 46.5951 227.183 46.8753C226.062 47.13 224.763 47.2574 223.286 47.2574ZM221.337 34.8021H222.178C224.343 34.8021 225.897 34.471 226.839 33.8088C227.807 33.121 228.291 32.3314 228.291 31.44C228.291 30.2683 227.641 29.6825 226.342 29.6825C225.629 29.6825 224.929 29.899 224.241 30.332C223.579 30.765 222.98 31.3635 222.445 32.1277C221.936 32.8918 221.567 33.7833 221.337 34.8021ZM233.359 56.0448L239.739 26.0147H244.018L243.713 29.1858H243.865C244.528 28.2943 245.343 27.4792 246.311 26.7406C247.278 26.0019 248.437 25.6326 249.787 25.6326C250.781 25.6326 251.723 25.8873 252.615 26.3967C253.532 26.8807 254.27 27.683 254.831 28.8037C255.391 29.899 255.671 31.3763 255.671 33.2357C255.671 34.9167 255.442 36.5978 254.983 38.2789C254.525 39.9345 253.875 41.4373 253.035 42.7872C252.194 44.1372 251.176 45.2197 249.978 46.0348C248.807 46.8498 247.482 47.2574 246.005 47.2574C244.731 47.2574 243.751 46.9645 243.063 46.3786C242.375 45.7928 241.777 45.0669 241.267 44.2009H241.115C241.038 45.2197 240.936 46.1494 240.809 46.9899C240.682 47.8305 240.516 48.7347 240.312 49.7026L238.975 56.0448H233.359ZM245.05 42.7108C245.737 42.7108 246.374 42.4434 246.96 41.9085C247.571 41.3481 248.094 40.6222 248.527 39.7307C248.985 38.8392 249.342 37.8459 249.596 36.7506C249.851 35.6554 249.978 34.5601 249.978 33.4649C249.978 31.2744 249.163 30.1792 247.533 30.1792C246.616 30.1792 245.839 30.5103 245.203 31.1725C244.566 31.8348 244.044 32.6626 243.636 33.6559C243.229 34.6493 242.923 35.6681 242.719 36.7124C242.541 37.7567 242.452 38.661 242.452 39.4251C242.452 40.4184 242.681 41.2208 243.139 41.8321C243.623 42.4179 244.26 42.7108 245.05 42.7108Z" fill="white"/>
</svg>
