<svg height="512" viewBox="0 0 64 64" width="512" xmlns="http://www.w3.org/2000/svg"><g id="Fill_Outline" data-name="Fill Outline"><g id="Color"><g><ellipse cx="32" cy="28" fill="#aae1f9" rx="29" ry="15"/><path d="m36.933 37c-10.37 0-19.841-4.413-27.115-11.684a39.9 39.9 0 0 1 24.182-8.316 40.209 40.209 0 0 1 26.029 9.808c-7.08-8.508-17.014-13.808-28.029-13.808-11.524 0-21.874 5.8-29 15 7.126 9.2 17.476 15 29 15 11.412 0 21.668-5.69 28.787-14.739a37.6 37.6 0 0 1 -23.854 8.739z" fill="#57b7eb"/><path d="m47 28a15 15 0 1 0 -24 11.98v3.02h18v-3.02a14.963 14.963 0 0 0 6-11.98z" fill="#f9e109"/><rect fill="#d0d8da" height="4" rx="2" width="24" x="20" y="43"/><rect fill="#d0d8da" height="4" rx="2" width="24" x="20" y="47"/><path d="m23 51h18a0 0 0 0 1 0 0v1a9 9 0 0 1 -9 9 9 9 0 0 1 -9-9v-1a0 0 0 0 1 0 0z" fill="#93999a"/><path d="m43 38a20 20 0 0 1 -20-20 20.269 20.269 0 0 1 .105-2.058 14.96 14.96 0 0 0 -.105 24.038v3.02h18v-3.02a15.2 15.2 0 0 0 2.141-1.987c-.048 0-.094.007-.141.007z" fill="#fcbc04"/><circle cx="32" cy="28" fill="#57b7eb" r="7"/><circle cx="36" cy="24" fill="#aae1f9" r="3"/><path d="m25.1 26.878a6.958 6.958 0 0 0 6.9 8.122c.156 0 .31-.013.464-.023a20.059 20.059 0 0 1 -7.364-8.099z" fill="#4891d3"/><path d="m23 43h-1a2 2 0 0 0 0 4h20a2 2 0 0 0 2-2h-19a2 2 0 0 1 -2-2z" fill="#93999a"/><path d="m23 47h-1a2 2 0 0 0 0 4h20a2 2 0 0 0 2-2h-19a2 2 0 0 1 -2-2z" fill="#93999a"/><path d="m35 55h5.477a8.956 8.956 0 0 0 .523-3v-1h-18v1a8.995 8.995 0 0 0 6.026 8.486 6 6 0 0 1 5.974-5.486z" fill="#656b76"/></g></g><g id="Outline_copy" data-name="Outline copy"><g fill="#323232"><path d="m37.863 8.456a1.029 1.029 0 0 0 .288.042 1 1 0 0 0 .957-.713l1.162-3.869a1 1 0 1 0 -1.916-.574l-1.162 3.869a1 1 0 0 0 .671 1.245z"/><path d="m44.456 10.056a1 1 0 0 0 1.356-.4l1.936-3.566a1 1 0 1 0 -1.758-.955l-1.936 3.565a1 1 0 0 0 .402 1.356z"/><path d="m51.943 13.317a1 1 0 0 0 .765-.355l2.629-3.122a1 1 0 1 0 -1.529-1.289l-2.629 3.122a1 1 0 0 0 .764 1.644z"/><path d="m58.042 18.285a1 1 0 0 0 .643-.234l3.1-2.6a1 1 0 0 0 -1.285-1.532l-3.1 2.6a1 1 0 0 0 .643 1.765z"/><path d="m11.292 12.962a1 1 0 1 0 1.529-1.289l-2.629-3.122a1 1 0 0 0 -1.529 1.289z"/><path d="m18.188 9.654a1 1 0 1 0 1.758-.954l-1.936-3.567a1 1 0 1 0 -1.758.955z"/><path d="m5.347 18.076a1 1 0 1 0 1.222-1.582l-2.958-2.285a1 1 0 1 0 -1.222 1.582z"/><path d="m24.892 7.785a1 1 0 0 0 .957.713 1.029 1.029 0 0 0 .288-.042 1 1 0 0 0 .671-1.245l-1.162-3.869a1 1 0 1 0 -1.916.574z"/><path d="m32 8a1 1 0 0 0 1-1v-4a1 1 0 0 0 -2 0v4a1 1 0 0 0 1 1z"/><path d="m18.407 39.063a38.375 38.375 0 0 1 -14.133-11.063 40.341 40.341 0 0 1 6.526-6.475 1 1 0 0 0 -1.235-1.574 42.6 42.6 0 0 0 -7.355 7.437 1 1 0 0 0 0 1.224 40.54 40.54 0 0 0 15.383 12.278 1 1 0 0 0 .814-1.827z"/><path d="m61.791 28.612a1 1 0 0 0 0-1.224c-7.572-9.78-18.431-15.388-29.791-15.388a35.874 35.874 0 0 0 -19.319 5.739 1 1 0 0 0 1.076 1.686 34.808 34.808 0 0 1 8.143-3.816 15.963 15.963 0 0 0 .1 24.86v1.531a3 3 0 0 0 0 6h20a1 1 0 0 1 0 2h-20a1 1 0 0 0 0 2 10 10 0 0 0 20 0 2.987 2.987 0 0 0 2.22-5 2.987 2.987 0 0 0 -2.22-5v-1.531a15.858 15.858 0 0 0 6-12.469 16.09 16.09 0 0 0 -.374-3.416 1 1 0 1 0 -1.954.426 14.062 14.062 0 0 1 .328 2.99 13.889 13.889 0 0 1 -5.6 11.181 1 1 0 0 0 -.4.8v2.019h-4v-7.08a7.966 7.966 0 0 0 3.49-9.713 1 1 0 0 0 -.842-.645.99.99 0 0 0 -.949.473 1.981 1.981 0 0 1 -1.699.965 2 2 0 0 1 -2-2 1.981 1.981 0 0 1 .964-1.7 1 1 0 0 0 -.172-1.79 7.982 7.982 0 0 0 -10.792 7.49 8.041 8.041 0 0 0 4 6.92v7.08h-4v-2.021a1 1 0 0 0 -.4-.8 13.991 13.991 0 1 1 20.8-17.679 1 1 0 1 0 1.771-.93 16.061 16.061 0 0 0 -4.038-4.955 37.515 37.515 0 0 1 17.593 12.385 38.375 38.375 0 0 1 -14.133 11.063 1 1 0 1 0 .814 1.827 40.54 40.54 0 0 0 15.384-12.278zm-29.791 31.388a8.009 8.009 0 0 1 -8-8h16a8.009 8.009 0 0 1 -8 8zm11-15a1 1 0 0 1 -1 1h-20a1 1 0 0 1 0-2h20a1 1 0 0 1 1 1zm-13.57-11.586a6 6 0 0 1 2.57-11.414c.175 0 .35.008.523.023a4 4 0 0 0 5.453 5.454c.016.173.024.348.024.523a6.027 6.027 0 0 1 -3.43 5.414 1 1 0 0 0 -.57.9v7.686h-4v-7.683a1 1 0 0 0 -.57-.903z"/><path d="m52.708 41.607a1 1 0 1 0 -1.529 1.293l2.629 3.123a1 1 0 1 0 1.529-1.29z"/><path d="m58.685 36.52a1 1 0 1 0 -1.285 1.531l3.1 2.6a1 1 0 0 0 1.286-1.531z"/><path d="m11.292 41.607-2.629 3.122a1 1 0 0 0 1.529 1.29l2.629-3.119a1 1 0 1 0 -1.529-1.289z"/><path d="m5.347 36.494-2.958 2.284a1 1 0 1 0 1.222 1.582l2.958-2.284a1 1 0 1 0 -1.222-1.582z"/></g></g></g></svg>